<svg width="159" height="31" viewBox="0 0 159 31" fill="none" xmlns="http://www.w3.org/2000/svg">
<path d="M42.4027 24.5542H45.261L40.361 12.4292H37.8777L33.1193 24.5542H35.9027L36.736 22.2709H41.5527L42.4027 24.5542ZM39.1443 15.6292L40.736 19.9792H37.5527L39.1443 15.6292Z" fill="black"/>
<path d="M50.8545 14.9376C49.8795 14.9376 48.9962 15.2126 48.2878 15.7209V11.8376H45.7628V24.5709H47.6128L47.9212 23.7709C48.7045 24.4542 49.7128 24.8292 50.8545 24.8292C53.6962 24.8292 55.7712 22.7209 55.7712 19.8959C55.7712 17.0542 53.6962 14.9376 50.8545 14.9376ZM50.6462 22.4376C49.1712 22.4376 48.0962 21.3292 48.0962 19.8792C48.0962 18.4209 49.1712 17.3126 50.6462 17.3126C52.1212 17.3126 53.1878 18.4209 53.1878 19.8792C53.1878 21.3292 52.1212 22.4376 50.6462 22.4376Z" fill="black"/>
<path d="M64.3419 15.1959L64.0835 16.0792C63.2669 15.3709 62.2169 14.9376 61.0002 14.9376C58.1919 14.9376 56.1002 17.0542 56.1002 19.8792C56.1002 22.7042 58.1919 24.8292 61.0002 24.8292C62.1919 24.8292 63.2335 24.4126 64.0335 23.7042L64.2585 24.5542H66.2335V15.1959H64.3419ZM61.2085 22.4376C59.7335 22.4376 58.6585 21.3292 58.6585 19.8792C58.6585 18.4042 59.7335 17.3126 61.2085 17.3126C62.6835 17.3126 63.7585 18.4042 63.7585 19.8792C63.7585 21.3459 62.6835 22.4376 61.2085 22.4376Z" fill="black"/>
<path d="M73.1255 14.9876C71.8588 14.9876 70.7338 15.5292 70.0255 16.3626L69.5338 15.1959H67.8088V24.5542H70.3338V19.6542C70.3338 18.1459 71.1338 17.2126 72.4338 17.2126C73.5255 17.2126 74.0588 17.8876 74.0588 19.3042V24.5542H76.5921V18.8876C76.5921 16.5126 75.2505 14.9876 73.1255 14.9876Z" fill="black"/>
<path d="M84.9021 11.8376V15.7209C84.1688 15.2126 83.3104 14.9376 82.3354 14.9376C79.4938 14.9376 77.4188 17.0542 77.4188 19.8959C77.4188 22.7209 79.4938 24.8459 82.3354 24.8459C83.4771 24.8459 84.4854 24.4542 85.2604 23.7959L85.5604 24.5709H87.4271V11.8376H84.9021ZM82.5438 22.4542C81.0688 22.4542 79.9938 21.3459 79.9938 19.8959C79.9938 18.4209 81.0688 17.3292 82.5438 17.3292C84.0188 17.3292 85.0938 18.4209 85.0938 19.8959C85.0938 21.3459 84.0188 22.4542 82.5438 22.4542Z" fill="black"/>
<path d="M93.4395 24.8292C96.3311 24.8292 98.4978 22.7042 98.4978 19.8792C98.4978 17.0542 96.3311 14.9376 93.4395 14.9376C90.5478 14.9376 88.3811 17.0542 88.3811 19.8792C88.3811 22.7042 90.5478 24.8292 93.4395 24.8292ZM93.4395 22.4376C91.9811 22.4376 90.9395 21.4042 90.9395 19.8792C90.9395 18.3709 91.9811 17.3126 93.4395 17.3126C94.8895 17.3126 95.9311 18.3709 95.9311 19.8792C95.9311 21.4042 94.8895 22.4376 93.4395 22.4376Z" fill="black"/>
<path d="M104.766 14.9876C103.499 14.9876 102.374 15.5292 101.666 16.3626L101.174 15.1959H99.449V24.5542H101.974V19.6542C101.974 18.1459 102.774 17.2126 104.074 17.2126C105.166 17.2126 105.699 17.8876 105.699 19.3042V24.5542H108.232V18.8876C108.232 16.5126 106.891 14.9876 104.766 14.9876Z" fill="black"/>
<path d="M114.117 24.8292C117.009 24.8292 119.176 22.7042 119.176 19.8792C119.176 17.0542 117.009 14.9376 114.117 14.9376C111.226 14.9376 109.059 17.0542 109.059 19.8792C109.059 22.7042 111.226 24.8292 114.117 24.8292ZM114.117 22.4376C112.659 22.4376 111.617 21.4042 111.617 19.8792C111.617 18.3709 112.659 17.3126 114.117 17.3126C115.567 17.3126 116.609 18.3709 116.609 19.8792C116.609 21.4042 115.567 22.4376 114.117 22.4376Z" fill="black"/>
<path d="M126.583 22.1292L131.591 12.9126V12.4292H122.908V14.8709H127.691L122.633 24.1709V24.5542H131.8V22.1292H126.583Z" fill="black"/>
<path d="M141.705 19.8626C141.705 17.1542 139.73 14.9376 136.855 14.9376C134.08 14.9376 132.005 17.0709 132.005 19.8792C132.005 22.6792 134.097 24.8292 136.855 24.8292C139.038 24.8292 140.822 23.5292 141.497 21.4876H138.847C138.463 22.1626 137.738 22.5792 136.855 22.5792C135.622 22.5792 134.788 21.8709 134.563 20.5876H141.655C141.688 20.3459 141.705 20.1042 141.705 19.8626ZM136.855 17.1042C137.997 17.1042 138.813 17.7292 139.172 18.8709H134.638C134.93 17.7626 135.73 17.1042 136.855 17.1042Z" fill="black"/>
<path d="M147.415 15.1459C146.207 15.1459 145.373 15.5292 144.698 16.3626L144.248 15.1959H142.64V24.5542H145.165V19.7042C145.165 18.1792 145.723 17.5376 147.14 17.5376H148.248V15.1459H147.415Z" fill="black"/>
<path d="M154.003 24.5542C156.878 24.5542 158.678 22.2459 158.678 18.5792C158.678 14.9042 156.894 12.6209 154.003 12.6209C151.128 12.6209 149.344 14.9042 149.344 18.5792C149.344 22.2459 151.144 24.5542 154.003 24.5542ZM154.003 22.2459C152.603 22.2459 151.836 20.9542 151.836 18.5792C151.836 16.2209 152.603 14.9209 154.003 14.9209C155.403 14.9209 156.186 16.2376 156.186 18.5959C156.186 20.9709 155.419 22.2459 154.003 22.2459Z" fill="black"/>
<path d="M0 16.5C0 16.2239 0.223858 16 0.5 16H1.5C1.77614 16 2 16.2239 2 16.5C2 16.7761 1.77614 17 1.5 17H0.5C0.223858 17 0 16.7761 0 16.5Z" fill="black"/>
<path d="M0 18.5C0 18.2239 0.223858 18 0.5 18H1.5C1.77614 18 2 18.2239 2 18.5C2 18.7761 1.77614 19 1.5 19H0.5C0.223858 19 0 18.7761 0 18.5Z" fill="black"/>
<path d="M0 20.5C0 20.2239 0.223858 20 0.5 20H1.5C1.77614 20 2 20.2239 2 20.5C2 20.7761 1.77614 21 1.5 21H0.5C0.223858 21 0 20.7761 0 20.5Z" fill="black"/>
<path d="M0.585438 13.8125C1.07919 11.9833 1.14169 11.9521 1.28752 11.5812C1.10002 11.1 0.793771 10.0396 0.425021 7.77083C-0.187479 4.01875 0.258354 3.18958 0.258354 3.18958C0.391688 2.9 0.739605 2.77083 1.03544 2.90416C1.06669 2.92083 1.09377 2.9375 1.12085 2.95208L6.55627 6.70416C7.15627 6.63958 8.89794 6.44791 10.725 6.26041C10.5375 3.02708 13.025 0.552079 13.2771 0.306246C13.325 0.252079 13.3834 0.208329 13.4542 0.181246C13.7479 0.0479127 14.0979 0.181246 14.225 0.477079L16.7709 6.1375C17.4479 6.38333 18.1125 6.78541 18.7542 7.32083C20.0084 8.36041 21.1938 9.91041 22.2542 11.7167C22.6625 12.4125 23.2459 13.25 23.8688 14.1437C26.1521 17.425 28.9646 21.4771 27.3042 24.6437C26.8688 25.4687 26.0771 26.2937 25.0625 27.0396C24.2709 27.625 23.3271 28.1708 22.3188 28.6417C22.3084 28.6479 22.2979 28.6521 22.2813 28.6583C21.2042 29.1562 20.0459 29.5646 18.8938 29.8375C16.5938 30.3833 14.2959 30.4 12.6396 29.5271C12.2688 29.3333 11.9313 29.0917 11.6313 28.8083C11.1063 28.45 10.0292 27.9562 8.86044 27.8812C8.10002 27.8333 7.31252 27.9625 6.6521 28.45C5.75627 29.1083 4.61044 29.5167 3.67294 29.5437C3.20002 29.5542 2.77294 29.4729 2.42294 29.2792C2.02085 29.0604 1.73752 28.7167 1.61877 28.225C1.5021 27.7312 1.58127 27.0979 1.92502 26.3104C2.53127 24.9271 3.57085 24.0375 4.69585 23.4979C5.75627 22.9875 6.91044 22.7896 7.84169 22.7896C7.15002 21.4229 6.64169 20.2646 6.35835 19.5833C5.93335 20.0562 5.67085 20.475 5.67085 20.4792C5.50002 20.7521 5.14169 20.8333 4.86669 20.6625C4.59377 20.4896 4.5146 20.1312 4.68544 19.8583C4.69169 19.8521 6.23335 17.3979 8.1896 17.1458C8.51252 17.1021 8.80211 17.3333 8.84377 17.65C8.88752 17.9708 8.65627 18.2604 8.34169 18.3042C7.97085 18.3521 7.61669 18.5229 7.28544 18.7479C7.53127 19.3583 8.27086 21.1125 9.35836 23.1646C9.36877 23.1854 9.38544 23.2083 9.39169 23.2292C9.73961 23.8833 10.1313 24.5687 10.5479 25.2604L10.5542 25.2708L10.5604 25.2771C11.0313 26.0542 11.5459 26.8312 12.0917 27.5708C12.3813 27.9625 12.7521 28.2667 13.1813 28.4917C14.5625 29.2167 16.5792 29.1833 18.6271 28.6958C19.6021 28.4646 20.5834 28.1271 21.5104 27.725C21.5521 27.2104 21.6167 26.15 21.5625 25.0021C20.9417 24.9396 19.9979 24.7354 18.7021 24.1771C16.0917 23.0458 15.6354 21.4437 16.5354 21.0208C17.4354 20.5917 18.8084 19.8479 21.9375 19.375C25.0688 18.9042 24.2584 20.7792 24.0292 21.8292C23.8188 22.7833 23.4667 24.4667 22.7271 24.8958C22.7688 25.7375 22.7521 26.5417 22.7209 27.1354C23.3209 26.8146 23.8792 26.4604 24.3771 26.0958C25.2563 25.4479 25.9271 24.7625 26.275 24.1021C27.6084 21.5625 25.0146 17.8375 22.9084 14.8146C22.2875 13.9187 21.7021 13.0833 21.2479 12.3062C20.25 10.6062 19.1521 9.16458 18.0104 8.21666C17.4104 7.71875 16.7979 7.35833 16.1938 7.17083L16.1813 7.16666C15.8229 7.05833 15.4646 7.01666 15.1104 7.0375C12.7459 7.1875 6.49169 7.88958 6.47085 7.88958C6.33544 7.90625 6.19169 7.87291 6.07294 7.7875L1.24377 4.45416C1.25002 5.02291 1.31877 5.975 1.58127 7.57916C2.13335 10.9812 2.35835 11.1958 2.35835 11.1958C2.50835 11.3687 2.5521 11.625 2.4396 11.8396C2.4396 11.8396 2.43335 11.4437 1.7646 13.925C1.26044 15.0667 0.425021 14.4167 0.585438 13.8125ZM17.8229 10.7292C18.4375 10.7292 18.9375 11.5771 18.9375 12.6229C18.9375 13.6667 18.4375 14.5146 17.8229 14.5146C17.2063 14.5146 16.7063 13.6667 16.7063 12.6229C16.7125 11.5771 17.2104 10.7292 17.8229 10.7292ZM12.5688 11.8125C13.1854 11.8125 13.6834 12.6604 13.6834 13.7042C13.6834 14.75 13.1854 15.5958 12.5688 15.5958C11.9542 15.5958 11.4542 14.75 11.4542 13.7042C11.4542 12.6604 11.9542 11.8125 12.5688 11.8125ZM9.61669 25.9687C9.35836 25.7958 8.28127 25.2437 6.02502 26.225C5.73127 26.3542 5.38752 26.2146 5.25835 25.9187C5.12919 25.625 5.26877 25.2812 5.5646 25.1542C6.92502 24.5646 7.99169 24.4562 8.77919 24.5312C8.67919 24.35 8.58127 24.1729 8.48544 23.9958C7.6771 23.8771 6.3896 23.9854 5.21044 24.5479C4.31044 24.9812 3.48544 25.6833 3.0021 26.7771C2.76669 27.3125 2.7021 27.7 2.76669 27.9562C2.79794 28.0896 2.87919 28.1875 2.99169 28.2521C3.1521 28.3417 3.38335 28.3792 3.65002 28.375C4.3646 28.3583 5.25419 28.0312 5.96669 27.5062C6.88335 26.8354 7.9396 26.6479 8.94586 26.7125C9.39169 26.7396 9.82502 26.8208 10.2334 26.9333C10.0188 26.6104 9.81461 26.2896 9.61669 25.9687Z" fill="black"/>
</svg>
