<svg xmlns="http://www.w3.org/2000/svg" xmlns:xlink="http://www.w3.org/1999/xlink" width="800" zoomAndPan="magnify" viewBox="0 0 600 149.999998" height="200" preserveAspectRatio="xMidYMid meet" version="1.0"><defs><g/><clipPath id="5f1dc89596"><path d="M 57.675781 30 L 142 30 L 142 121.730469 L 57.675781 121.730469 Z M 57.675781 30 " clip-rule="nonzero"/></clipPath><clipPath id="6f0ba90c11"><path d="M 57.675781 56 L 66 56 L 66 117 L 57.675781 117 Z M 57.675781 56 " clip-rule="nonzero"/></clipPath></defs><g fill="#000000" fill-opacity="1"><g transform="translate(157.566764, 104.247809)"><g><path d="M 28.546875 0 L 37.203125 0 L 22.359375 -36.734375 L 14.84375 -36.734375 L 0.421875 0 L 8.875 0 L 11.390625 -6.921875 L 25.96875 -6.921875 Z M 18.671875 -27.015625 L 23.5 -13.859375 L 13.859375 -13.859375 Z M 18.671875 -27.015625 "/></g></g></g><g fill="#000000" fill-opacity="1"><g transform="translate(192.608433, 104.247809)"><g><path d="M 19.09375 -29.125 C 16.15625 -29.125 13.484375 -28.28125 11.328125 -26.765625 L 11.328125 -38.515625 L 3.671875 -38.515625 L 3.671875 0.046875 L 9.28125 0.046875 L 10.234375 -2.359375 C 12.59375 -0.3125 15.640625 0.84375 19.09375 0.84375 C 27.703125 0.84375 34 -5.5625 34 -14.109375 C 34 -22.71875 27.703125 -29.125 19.09375 -29.125 Z M 18.46875 -6.40625 C 14.015625 -6.40625 10.75 -9.765625 10.75 -14.171875 C 10.75 -18.578125 14.015625 -21.9375 18.46875 -21.9375 C 22.921875 -21.9375 26.1875 -18.578125 26.1875 -14.171875 C 26.1875 -9.765625 22.921875 -6.40625 18.46875 -6.40625 Z M 18.46875 -6.40625 "/></g></g></g><g fill="#000000" fill-opacity="1"><g transform="translate(225.814034, 104.247809)"><g><path d="M 26.765625 -28.328125 L 25.96875 -25.65625 C 23.5 -27.8125 20.3125 -29.125 16.625 -29.125 C 8.125 -29.125 1.78125 -22.71875 1.78125 -14.171875 C 1.78125 -5.609375 8.125 0.84375 16.625 0.84375 C 20.25 0.84375 23.40625 -0.421875 25.8125 -2.578125 L 26.5 0 L 32.484375 0 L 32.484375 -28.328125 Z M 17.265625 -6.40625 C 12.796875 -6.40625 9.546875 -9.765625 9.546875 -14.171875 C 9.546875 -18.625 12.796875 -21.9375 17.265625 -21.9375 C 21.71875 -21.9375 24.96875 -18.625 24.96875 -14.171875 C 24.96875 -9.703125 21.71875 -6.40625 17.265625 -6.40625 Z M 17.265625 -6.40625 "/></g></g></g><g fill="#000000" fill-opacity="1"><g transform="translate(259.386844, 104.247809)"><g><path d="M 19.78125 -28.96875 C 15.953125 -28.96875 12.546875 -27.34375 10.390625 -24.8125 L 8.921875 -28.328125 L 3.671875 -28.328125 L 3.671875 0 L 11.328125 0 L 11.328125 -14.84375 C 11.328125 -19.40625 13.75 -22.25 17.6875 -22.25 C 20.984375 -22.25 22.609375 -20.203125 22.609375 -15.890625 L 22.609375 0 L 30.28125 0 L 30.28125 -17.15625 C 30.28125 -24.34375 26.234375 -28.96875 19.78125 -28.96875 Z M 19.78125 -28.96875 "/></g></g></g><g fill="#000000" fill-opacity="1"><g transform="translate(290.389149, 104.247809)"><g><path d="M 24.453125 -38.515625 L 24.453125 -26.765625 C 22.25 -28.28125 19.625 -29.125 16.6875 -29.125 C 8.078125 -29.125 1.78125 -22.71875 1.78125 -14.109375 C 1.78125 -5.5625 8.078125 0.890625 16.6875 0.890625 C 20.140625 0.890625 23.1875 -0.3125 25.546875 -2.3125 L 26.4375 0.046875 L 32.109375 0.046875 L 32.109375 -38.515625 Z M 17.3125 -6.34375 C 12.859375 -6.34375 9.609375 -9.703125 9.609375 -14.109375 C 9.609375 -18.578125 12.859375 -21.875 17.3125 -21.875 C 21.78125 -21.875 25.03125 -18.578125 25.03125 -14.109375 C 25.03125 -9.703125 21.78125 -6.34375 17.3125 -6.34375 Z M 17.3125 -6.34375 "/></g></g></g><g fill="#000000" fill-opacity="1"><g transform="translate(323.594758, 104.247809)"><g><path d="M 17.109375 0.84375 C 25.859375 0.84375 32.421875 -5.609375 32.421875 -14.171875 C 32.421875 -22.71875 25.859375 -29.125 17.109375 -29.125 C 8.34375 -29.125 1.78125 -22.71875 1.78125 -14.171875 C 1.78125 -5.609375 8.34375 0.84375 17.109375 0.84375 Z M 17.109375 -6.40625 C 12.703125 -6.40625 9.546875 -9.546875 9.546875 -14.171875 C 9.546875 -18.734375 12.703125 -21.9375 17.109375 -21.9375 C 21.515625 -21.9375 24.65625 -18.734375 24.65625 -14.171875 C 24.65625 -9.546875 21.515625 -6.40625 17.109375 -6.40625 Z M 17.109375 -6.40625 "/></g></g></g><g fill="#000000" fill-opacity="1"><g transform="translate(355.226576, 104.247809)"><g><path d="M 19.78125 -28.96875 C 15.953125 -28.96875 12.546875 -27.34375 10.390625 -24.8125 L 8.921875 -28.328125 L 3.671875 -28.328125 L 3.671875 0 L 11.328125 0 L 11.328125 -14.84375 C 11.328125 -19.40625 13.75 -22.25 17.6875 -22.25 C 20.984375 -22.25 22.609375 -20.203125 22.609375 -15.890625 L 22.609375 0 L 30.28125 0 L 30.28125 -17.15625 C 30.28125 -24.34375 26.234375 -28.96875 19.78125 -28.96875 Z M 19.78125 -28.96875 "/></g></g></g><g fill="#000000" fill-opacity="1"><g transform="translate(386.228882, 104.247809)"><g><path d="M 17.109375 0.84375 C 25.859375 0.84375 32.421875 -5.609375 32.421875 -14.171875 C 32.421875 -22.71875 25.859375 -29.125 17.109375 -29.125 C 8.34375 -29.125 1.78125 -22.71875 1.78125 -14.171875 C 1.78125 -5.609375 8.34375 0.84375 17.109375 0.84375 Z M 17.109375 -6.40625 C 12.703125 -6.40625 9.546875 -9.546875 9.546875 -14.171875 C 9.546875 -18.734375 12.703125 -21.9375 17.109375 -21.9375 C 21.515625 -21.9375 24.65625 -18.734375 24.65625 -14.171875 C 24.65625 -9.546875 21.515625 -6.40625 17.109375 -6.40625 Z M 17.109375 -6.40625 "/></g></g></g><g fill="#000000" fill-opacity="1"><g transform="translate(417.8607, 104.247809)"><g/></g></g><g fill="#000000" fill-opacity="1"><g transform="translate(427.774344, 104.247809)"><g><path d="M 13.328125 -7.34375 L 28.484375 -35.265625 L 28.484375 -36.734375 L 2.203125 -36.734375 L 2.203125 -29.328125 L 16.6875 -29.328125 L 1.359375 -1.15625 L 1.359375 0 L 29.125 0 L 29.125 -7.34375 Z M 13.328125 -7.34375 "/></g></g></g><g fill="#000000" fill-opacity="1"><g transform="translate(455.734008, 104.247809)"><g><path d="M 31.171875 -14.21875 C 31.171875 -22.40625 25.1875 -29.125 16.46875 -29.125 C 8.078125 -29.125 1.78125 -22.671875 1.78125 -14.171875 C 1.78125 -5.671875 8.125 0.84375 16.46875 0.84375 C 23.09375 0.84375 28.484375 -3.09375 30.53125 -9.28125 L 22.515625 -9.28125 C 21.359375 -7.234375 19.15625 -5.984375 16.46875 -5.984375 C 12.75 -5.984375 10.234375 -8.125 9.546875 -12.015625 L 31.015625 -12.015625 C 31.109375 -12.75 31.171875 -13.484375 31.171875 -14.21875 Z M 16.46875 -22.5625 C 19.9375 -22.5625 22.40625 -20.671875 23.5 -17.203125 L 9.765625 -17.203125 C 10.65625 -20.5625 13.0625 -22.5625 16.46875 -22.5625 Z M 16.46875 -22.5625 "/></g></g></g><g fill="#000000" fill-opacity="1"><g transform="translate(486.054333, 104.247809)"><g><path d="M 18.15625 -28.484375 C 14.484375 -28.484375 11.96875 -27.34375 9.921875 -24.8125 L 8.546875 -28.328125 L 3.671875 -28.328125 L 3.671875 0 L 11.328125 0 L 11.328125 -14.6875 C 11.328125 -19.3125 13.015625 -21.25 17.3125 -21.25 L 20.671875 -21.25 L 20.671875 -28.484375 Z M 18.15625 -28.484375 "/></g></g></g><g fill="#000000" fill-opacity="1"><g transform="translate(504.781149, 104.247809)"><g><path d="M 16.578125 0.625 C 25.296875 0.625 30.75 -6.34375 30.75 -17.46875 C 30.75 -28.59375 25.34375 -35.515625 16.578125 -35.515625 C 7.875 -35.515625 2.46875 -28.59375 2.46875 -17.46875 C 2.46875 -6.34375 7.921875 0.625 16.578125 0.625 Z M 16.578125 -6.34375 C 12.328125 -6.34375 10.015625 -10.28125 10.015625 -17.46875 C 10.015625 -24.609375 12.328125 -28.546875 16.578125 -28.546875 C 20.828125 -28.546875 23.1875 -24.5625 23.1875 -17.421875 C 23.1875 -10.234375 20.875 -6.34375 16.578125 -6.34375 Z M 16.578125 -6.34375 "/></g></g></g><g clip-path="url(#5f1dc89596)"><path fill="#000000" d="M 59.449219 71.707031 C 60.941406 66.171875 61.136719 66.074219 61.574219 64.953125 C 61.003906 63.492188 60.082031 60.277344 58.960938 53.410156 C 57.109375 42.046875 58.457031 39.53125 58.457031 39.53125 C 58.863281 38.652344 59.917969 38.265625 60.8125 38.667969 C 60.910156 38.71875 60.988281 38.765625 61.070312 38.816406 L 77.53125 50.179688 C 79.351562 49.984375 84.628906 49.402344 90.164062 48.832031 C 89.59375 39.042969 97.128906 31.542969 97.890625 30.796875 C 98.039062 30.632812 98.214844 30.503906 98.425781 30.421875 C 99.320312 30.015625 100.375 30.421875 100.765625 31.316406 L 108.476562 48.460938 C 110.523438 49.207031 112.535156 50.425781 114.484375 52.046875 C 118.28125 55.195312 121.871094 59.890625 125.085938 65.359375 C 126.320312 67.46875 128.089844 70.003906 129.972656 72.714844 C 136.886719 82.648438 145.410156 94.921875 140.378906 104.519531 C 139.0625 107.019531 136.660156 109.519531 133.59375 111.773438 C 131.1875 113.546875 128.332031 115.199219 125.28125 116.628906 C 125.246094 116.644531 125.214844 116.660156 125.164062 116.679688 C 121.902344 118.1875 118.394531 119.421875 114.90625 120.25 C 107.941406 121.90625 100.976562 121.953125 95.960938 119.308594 C 94.839844 118.722656 93.816406 117.992188 92.90625 117.132812 C 91.316406 116.046875 88.054688 114.550781 84.515625 114.324219 C 82.207031 114.179688 79.820312 114.566406 77.824219 116.046875 C 75.113281 118.042969 71.640625 119.277344 68.796875 119.355469 C 67.371094 119.390625 66.070312 119.144531 65.015625 118.5625 C 63.796875 117.894531 62.9375 116.855469 62.582031 115.363281 C 62.222656 113.871094 62.46875 111.953125 63.507812 109.566406 C 65.339844 105.378906 68.488281 102.683594 71.898438 101.042969 C 75.113281 99.5 78.605469 98.902344 81.429688 98.902344 C 79.335938 94.761719 77.792969 91.253906 76.933594 89.191406 C 75.648438 90.621094 74.855469 91.886719 74.855469 91.902344 C 74.335938 92.730469 73.246094 92.976562 72.417969 92.457031 C 71.589844 91.9375 71.347656 90.847656 71.867188 90.019531 C 71.882812 90.003906 76.558594 82.570312 82.484375 81.804688 C 83.457031 81.675781 84.335938 82.375 84.464844 83.332031 C 84.59375 84.304688 83.898438 85.183594 82.9375 85.3125 C 81.820312 85.457031 80.746094 85.976562 79.742188 86.660156 C 80.488281 88.511719 82.726562 93.820312 86.023438 100.039062 C 86.054688 100.101562 86.105469 100.167969 86.121094 100.230469 C 87.175781 102.214844 88.363281 104.292969 89.628906 106.386719 L 89.644531 106.417969 L 89.660156 106.433594 C 91.089844 108.789062 92.648438 111.140625 94.304688 113.382812 C 95.179688 114.566406 96.300781 115.492188 97.597656 116.175781 C 101.789062 118.367188 107.890625 118.269531 114.09375 116.792969 C 117.046875 116.09375 120.019531 115.070312 122.828125 113.851562 C 122.957031 112.292969 123.152344 109.082031 122.992188 105.605469 C 121.105469 105.410156 118.25 104.792969 114.320312 103.105469 C 106.414062 99.679688 105.035156 94.828125 107.761719 93.542969 C 110.488281 92.246094 114.644531 89.988281 124.125 88.558594 C 133.609375 87.128906 131.15625 92.8125 130.457031 95.996094 C 129.824219 98.886719 128.753906 103.984375 126.511719 105.28125 C 126.644531 107.832031 126.59375 110.265625 126.496094 112.066406 C 128.316406 111.09375 130.003906 110.023438 131.515625 108.917969 C 134.175781 106.953125 136.207031 104.875 137.261719 102.878906 C 141.304688 95.183594 133.445312 83.898438 127.066406 74.742188 C 125.183594 72.03125 123.414062 69.5 122.03125 67.144531 C 119.011719 62 115.683594 57.632812 112.226562 54.757812 C 110.410156 53.25 108.558594 52.160156 106.722656 51.59375 L 106.691406 51.578125 C 105.601562 51.25 104.515625 51.121094 103.445312 51.1875 C 96.285156 51.640625 77.339844 53.769531 77.273438 53.769531 C 76.867188 53.816406 76.429688 53.71875 76.070312 53.460938 L 61.445312 43.363281 C 61.460938 45.082031 61.671875 47.972656 62.46875 52.828125 C 64.140625 63.136719 64.820312 63.785156 64.820312 63.785156 C 65.277344 64.304688 65.40625 65.082031 65.066406 65.734375 C 65.066406 65.734375 65.046875 64.53125 63.019531 72.046875 C 61.492188 75.507812 58.960938 73.542969 59.449219 71.707031 Z M 111.660156 62.371094 C 113.527344 62.371094 115.035156 64.9375 115.035156 68.105469 C 115.035156 71.269531 113.527344 73.835938 111.660156 73.835938 C 109.792969 73.835938 108.28125 71.269531 108.28125 68.105469 C 108.296875 64.9375 109.808594 62.371094 111.660156 62.371094 Z M 95.75 65.652344 C 97.617188 65.652344 99.125 68.21875 99.125 71.382812 C 99.125 74.550781 97.617188 77.113281 95.75 77.113281 C 93.882812 77.113281 92.371094 74.550781 92.371094 71.382812 C 92.371094 68.21875 93.882812 65.652344 95.75 65.652344 Z M 86.804688 108.527344 C 86.023438 108.007812 82.761719 106.335938 75.925781 109.308594 C 75.03125 109.699219 73.992188 109.273438 73.605469 108.382812 C 73.214844 107.488281 73.636719 106.449219 74.53125 106.0625 C 78.652344 104.273438 81.882812 103.949219 84.269531 104.175781 C 83.960938 103.625 83.667969 103.089844 83.378906 102.554688 C 80.925781 102.195312 77.03125 102.523438 73.457031 104.226562 C 70.730469 105.542969 68.230469 107.667969 66.769531 110.980469 C 66.054688 112.601562 65.859375 113.773438 66.054688 114.550781 C 66.152344 114.957031 66.394531 115.25 66.738281 115.445312 C 67.222656 115.71875 67.921875 115.835938 68.734375 115.816406 C 70.894531 115.769531 73.585938 114.777344 75.746094 113.1875 C 78.523438 111.160156 81.722656 110.589844 84.773438 110.785156 C 86.121094 110.867188 87.4375 111.109375 88.671875 111.449219 C 88.019531 110.476562 87.402344 109.503906 86.804688 108.527344 Z M 86.804688 108.527344 " fill-opacity="1" fill-rule="nonzero"/></g><g clip-path="url(#6f0ba90c11)"><path fill="#000000" d="M 7.527344 100.410156 C 7.445312 99.4375 8.175781 98.578125 9.152344 98.511719 C 10.125 98.429688 10.984375 99.160156 11.050781 100.136719 C 11.050781 100.152344 11.3125 103.773438 12.933594 103.691406 C 15.222656 103.578125 17.238281 99.078125 17.253906 99.078125 C 17.660156 98.1875 18.714844 97.796875 19.589844 98.203125 C 20.09375 98.429688 20.433594 98.867188 20.566406 99.355469 C 20.566406 99.371094 22.007812 104.761719 24.65625 104.242188 C 27.984375 103.578125 29.183594 100.445312 29.183594 100.425781 C 29.542969 99.519531 30.566406 99.0625 31.476562 99.421875 C 32.382812 99.777344 32.839844 100.800781 32.480469 101.710938 C 32.480469 101.726562 30.582031 106.644531 25.335938 107.699219 C 21.992188 108.367188 19.816406 105.929688 18.550781 103.675781 C 17.269531 105.363281 15.402344 107.117188 13.097656 107.230469 C 8 107.488281 7.527344 100.425781 7.527344 100.410156 Z M 58.261719 110.101562 C 58.425781 111.0625 57.773438 111.988281 56.800781 112.148438 C 55.84375 112.3125 54.917969 111.660156 54.753906 110.6875 C 54.316406 108.105469 53.8125 105.152344 53.277344 102.035156 C 50.679688 102.40625 48.910156 102.925781 48.894531 102.925781 C 47.953125 103.203125 46.980469 102.652344 46.703125 101.726562 C 46.425781 100.785156 46.980469 99.808594 47.90625 99.535156 C 47.921875 99.535156 49.835938 98.964844 52.660156 98.558594 C 52.367188 96.839844 52.058594 95.101562 51.753906 93.363281 C 48.894531 94.355469 47.238281 95.394531 47.238281 95.394531 C 46.410156 95.898438 45.308594 95.636719 44.804688 94.808594 C 44.300781 93.980469 44.558594 92.878906 45.386719 92.375 C 45.402344 92.375 47.515625 91.027344 51.117188 89.859375 C 50.957031 88.949219 50.792969 88.054688 50.632812 87.195312 C 50.4375 86.125 50.242188 85.070312 50.046875 84.046875 C 48.375 84.664062 46.832031 85.296875 45.550781 85.863281 C 45.128906 86.042969 44.851562 86.171875 44.707031 86.238281 L 44.625 86.269531 C 44.316406 86.417969 44.023438 86.546875 43.796875 86.660156 C 42.921875 87.082031 41.847656 86.691406 41.441406 85.816406 C 41.019531 84.9375 41.410156 83.882812 42.285156 83.460938 C 42.578125 83.332031 42.871094 83.1875 43.148438 83.054688 C 43.179688 83.039062 43.210938 83.023438 43.246094 83.023438 C 43.683594 82.828125 43.992188 82.683594 44.136719 82.617188 C 45.632812 81.953125 47.433594 81.222656 49.398438 80.507812 C 48.847656 77.683594 48.34375 75.214844 47.9375 73.378906 C 46.363281 66.429688 44.460938 62.601562 43.292969 60.75 L 33.226562 71.1875 C 32.773438 71.660156 32.109375 71.820312 31.523438 71.675781 C 31.507812 71.675781 24.429688 69.855469 20.160156 70.066406 C 15.9375 70.261719 12.253906 71.738281 12.253906 71.738281 C 11.503906 72.046875 10.660156 71.789062 10.191406 71.1875 C 9.703125 70.636719 5.921875 66.480469 1.652344 65.214844 C -1.238281 64.351562 -4.4375 63.949219 -6.5625 63.753906 L -2.828125 77.261719 C -2.714844 77.648438 -2.75 78.039062 -2.894531 78.378906 C -3.058594 78.867188 -3.851562 81.335938 -4.925781 85.167969 C -0.703125 86.042969 1.570312 87.519531 1.570312 87.535156 C 2.398438 88.054688 2.65625 89.144531 2.136719 89.972656 C 1.617188 90.800781 0.53125 91.058594 -0.296875 90.539062 C -0.3125 90.539062 -2.195312 89.289062 -5.847656 88.574219 C -5.964844 89.03125 -6.09375 89.5 -6.207031 89.988281 C -6.695312 91.921875 -7.082031 93.707031 -7.390625 95.265625 C -4.4375 94.890625 -2.210938 94.730469 -2.195312 94.730469 C -1.222656 94.664062 -0.363281 95.394531 -0.296875 96.367188 C -0.230469 97.34375 -0.960938 98.203125 -1.9375 98.269531 C -1.953125 98.269531 -4.695312 98.480469 -8.023438 98.917969 C -8.15625 99.808594 -8.253906 100.523438 -8.300781 101.011719 C -7.683594 101.628906 -6.613281 102.667969 -5.214844 103.917969 C -2.359375 102.78125 -0.574219 102.570312 -0.558594 102.570312 C 0.417969 102.457031 1.292969 103.15625 1.40625 104.128906 C 1.519531 105.101562 0.824219 105.980469 -0.152344 106.09375 C -0.152344 106.09375 -0.882812 106.175781 -2.132812 106.5625 C 1.117188 109.195312 5.140625 112.003906 8.988281 113.480469 C 9.898438 113.835938 10.371094 114.859375 10.011719 115.769531 C 9.671875 116.679688 8.632812 117.148438 7.722656 116.792969 C 2.867188 114.941406 -2.179688 111.191406 -5.867188 108.058594 C -7.847656 109.015625 -10.234375 110.445312 -12.863281 112.554688 C -13.625 113.171875 -14.746094 113.042969 -15.347656 112.277344 C -15.964844 111.515625 -15.832031 110.394531 -15.070312 109.792969 C -12.78125 107.960938 -10.605469 106.582031 -8.691406 105.542969 C -10.117188 104.210938 -11.078125 103.253906 -11.335938 102.976562 C -11.726562 102.617188 -11.953125 102.082031 -11.90625 101.515625 C -11.90625 101.515625 -11.839844 100.785156 -11.660156 99.484375 C -14.046875 99.90625 -16.371094 100.445312 -17.976562 101.09375 C -18.886719 101.464844 -19.910156 101.027344 -20.28125 100.136719 C -20.65625 99.226562 -20.21875 98.203125 -19.324219 97.828125 C -17.214844 96.953125 -14.097656 96.289062 -11.078125 95.800781 C -10.734375 93.917969 -10.265625 91.644531 -9.617188 89.128906 L -9.355469 88.136719 C -11.53125 87.992188 -14.097656 88.089844 -17.035156 88.574219 C -17.992188 88.738281 -18.917969 88.089844 -19.082031 87.113281 C -19.242188 86.15625 -18.59375 85.230469 -17.621094 85.070312 C -14.113281 84.484375 -11.027344 84.4375 -8.429688 84.664062 C -7.472656 81.238281 -6.695312 78.738281 -6.367188 77.714844 L -10.621094 62.308594 C -10.671875 62.144531 -10.6875 61.96875 -10.6875 61.789062 C -10.671875 60.8125 -9.859375 60.035156 -8.886719 60.066406 C -8.867188 60.066406 -2.617188 60.261719 2.675781 61.820312 C 6.832031 63.054688 10.515625 66.429688 12.105469 68.054688 C 13.699219 67.535156 16.71875 66.707031 20.011719 66.546875 C 23.761719 66.367188 29.183594 67.503906 31.410156 68.007812 L 42.140625 56.867188 C 42.171875 56.835938 42.207031 56.789062 42.238281 56.753906 C 42.9375 56.058594 44.058594 56.058594 44.753906 56.753906 C 44.769531 56.773438 48.714844 60.714844 51.410156 72.601562 C 51.816406 74.371094 52.289062 76.707031 52.808594 79.402344 L 53.117188 79.304688 C 56.574219 78.316406 60.324219 77.617188 63.816406 77.730469 C 64.789062 77.761719 65.566406 78.574219 65.535156 79.550781 C 65.503906 80.523438 64.691406 81.300781 63.71875 81.269531 C 60.648438 81.1875 57.273438 81.820312 54.089844 82.730469 C 53.878906 82.796875 53.683594 82.84375 53.472656 82.910156 C 53.699219 84.078125 53.910156 85.296875 54.136719 86.546875 L 54.578125 88.917969 C 57.191406 88.347656 60.257812 87.976562 63.667969 88.121094 C 64.640625 88.152344 65.40625 88.980469 65.371094 89.957031 C 65.339844 90.929688 64.511719 91.691406 63.539062 91.660156 C 60.390625 91.53125 57.582031 91.871094 55.210938 92.40625 C 55.550781 94.355469 55.890625 96.289062 56.234375 98.203125 C 57.953125 98.105469 59.820312 98.105469 61.6875 98.316406 C 62.660156 98.429688 63.359375 99.308594 63.261719 100.265625 C 63.148438 101.238281 62.273438 101.9375 61.3125 101.824219 C 59.789062 101.644531 58.277344 101.628906 56.851562 101.695312 C 57.351562 104.746094 57.839844 107.601562 58.261719 110.101562 Z M 58.261719 110.101562 " fill-opacity="1" fill-rule="nonzero"/></g></svg>